HIERARCHY
ROOT Hips
{
  OFFSET 3.13124 94.3669 -3.18751
  CHANNELS  6 Xposition Yposition Zposition Zrotation Xrotation Yrotation
  JOINT LeftUpLeg
  {
    OFFSET 8.64259 1.95398 -2.38835
    CHANNELS 3 Zrotation Xrotation Yrotation
    JOINT LeftLeg
    {
      OFFSET 43.7702 0 0
      CHANNELS 3 Zrotation Xrotation Yrotation
      JOINT LeftFoot
      {
        OFFSET 40.6238 0 0
        CHANNELS 3 Zrotation Xrotation Yrotation
        JOINT LeftToeBase
        {
          OFFSET 12.7242 0 0
          CHANNELS 3 Zrotation Xrotation Yrotation
          End Site
          {
            OFFSET 0 0 0
          }
        }
      }
    }
  }
  JOINT RightUpLeg
  {
    OFFSET -8.2249 1.95398 -2.59336
    CHANNELS 3 Zrotation Xrotation Yrotation
    JOINT RightLeg
    {
      OFFSET 43.5653 0 0
      CHANNELS 3 Zrotation Xrotation Yrotation
      JOINT RightFoot
      {
        OFFSET 40.6238 0 0
        CHANNELS 3 Zrotation Xrotation Yrotation
        JOINT RightToeBase
        {
          OFFSET 12.7242 0 0
          CHANNELS 3 Zrotation Xrotation Yrotation
          End Site
          {
            OFFSET 0 0 0
          }
        }
      }
    }
  }
  JOINT Spine
  {
    OFFSET 0.165834 0.87714 6.61349
    CHANNELS 3 Zrotation Xrotation Yrotation
    JOINT Spine1
    {
      OFFSET 7.38962 1.71661e-005 0
      CHANNELS 3 Zrotation Xrotation Yrotation
      JOINT Spine2
      {
        OFFSET 11.9445 1.14441e-005 0
        CHANNELS 3 Zrotation Xrotation Yrotation
        JOINT Spine3
        {
          OFFSET 14.7254 4.19617e-005 0
          CHANNELS 3 Zrotation Xrotation Yrotation
          JOINT Spine4
          {
            OFFSET 10.9679 0 0
            CHANNELS 3 Zrotation Xrotation Yrotation
            JOINT RightShoulder
            {
              OFFSET 2.46616 -1.6653 3.69651
              CHANNELS 3 Zrotation Xrotation Yrotation
              JOINT RightArm
              {
                OFFSET 13.0012 0 0
                CHANNELS 3 Zrotation Xrotation Yrotation
                JOINT RightForeArm
                {
                  OFFSET 28.7848 1.52588e-005 0
                  CHANNELS 3 Zrotation Xrotation Yrotation
                  JOINT RightHand
                  {
                    OFFSET 26.5688 1.52588e-005 0
                    CHANNELS 3 Zrotation Xrotation Yrotation
                    End Site
                    {
                      OFFSET 0 0 0
                    }
                  }
                }
              }
            }
            JOINT LeftShoulder
            {
              OFFSET 2.38034 -1.29275 -3.75231
              CHANNELS 3 Zrotation Xrotation Yrotation
              JOINT LeftArm
              {
                OFFSET 16.3182 6.10352e-005 0
                CHANNELS 3 Zrotation Xrotation Yrotation
                JOINT LeftForeArm
                {
                  OFFSET 27.0901 0 0
                  CHANNELS 3 Zrotation Xrotation Yrotation
                  JOINT LeftHand
                  {
                    OFFSET 24.5451 1.52588e-005 0
                    CHANNELS 3 Zrotation Xrotation Yrotation
                    End Site
                    {
                      OFFSET 0 0 0
                    }
                  }
                }
              }
            }
            JOINT Neck
            {
              OFFSET 5.0226 -0.0266342 0
              CHANNELS 3 Zrotation Xrotation Yrotation
              JOINT Head
              {
                OFFSET 6.69363 2.86102e-005 0
                CHANNELS 3 Zrotation Xrotation Yrotation
                End Site
                {
                  OFFSET 0 0 0
                }
              }
            }
          }
        }
      }
    }
  }
}
MOTION
Frames:	12
Frame Time:	0.0333333
-46.0062 90.2683 -113.9 -91.5174 -43.0119 -87.8021 179.123 16.6668 83.9507 -29.8037 -34.8877 -2.60124 68.1264 5.22045 2.85129 28.7808 5.44988e-006 1.52149e-006 -179.531 21.0161 90.2618 -64.5629 53.8804 4.262 38.2181 3.90308 4.3065 28.7808 1.36314e-005 3.08957e-005 0.922355 6.75311 -89.4339 13.4012 1.7064 -0.838685 1.73104 1.66783 -0.912996 -20.8127 1.87955 -0.286913 -0.800055 1.87954 -0.286916 92.6216 -47.4072 -97.2867 48.5625 -3.94722 -33.7165 -6.02888 -51.136 -5.93129 0.272843 -0.121142 -16.7736 -72.1649 -53.2823 105.383 6.0115 -27.9184 3.59969 -38.9565 -22.3572 -47.1398 14.7561 -1.16334 -11.4838 -18.0129 -0.169844 2.25362 -32.7315 -4.05266 13.9823 
-47.5277 90.1283 -112.683 -93.2855 -46.5681 -89.0352 179.036 14.111 83.8029 -30.0044 -32.0761 -2.28074 70.3767 6.27566 3.30095 28.7808 5.44988e-006 1.52149e-006 -179.076 21.4065 86.6103 -59.0915 52.1389 4.08497 41.5728 0.202587 0.790578 28.7808 1.36314e-005 3.08957e-005 0.800883 6.87075 -89.5715 13.1602 1.48415 -0.915974 1.48973 1.44242 -0.980426 -21.0515 1.6908 -0.42748 -1.03881 1.69083 -0.427502 93.2034 -49.0274 -96.0687 45.9432 -1.68398 -32.9796 -5.63309 -46.5479 -5.65826 -4.11606 0.283405 -15.1762 -73.6162 -53.0357 103.283 0.30009 -28.0553 -0.152737 -34.6106 -22.4882 -43.12 16.1179 -1.25349 -11.5111 -19.3285 -1.21939 0.695934 -32.6589 -4.94374 13.2579 
-48.8399 90.1351 -111.537 -94.0816 -49.4901 -89.662 178.94 12.379 83.8003 -29.9638 -29.4617 -1.96107 71.8111 6.71839 3.44629 28.7808 5.44988e-006 1.52149e-006 -179.057 21.5249 82.6793 -51.3672 54.9869 4.86101 45.4806 2.33881 2.36939 28.7808 1.36314e-005 3.08957e-005 0.752837 6.8993 -89.873 13.0958 1.40369 -0.9642 1.42527 1.35991 -1.02507 -21.115 1.62855 -0.497697 -1.10234 1.62854 -0.497703 93.9362 -50.4192 -94.6999 42.8462 1.10457 -31.3877 -5.36225 -42.9085 -5.4867 -5.01699 0.421834 -16.5035 -74.8128 -52.88 101.538 -6.21288 -27.5804 -4.06818 -29.3373 -21.1674 -38.6737 18.7093 -1.1026 -9.80823 -20.5785 -2.1251 -0.737618 -32.7257 -5.77867 12.6882 
-50.1951 90.2958 -110.418 -95.0727 -52.3579 -90.1648 178.917 10.4885 84.3149 -29.737 -26.7503 -1.64516 72.8142 7.0683 3.55835 28.7808 5.44988e-006 1.52149e-006 179.498 18.3674 79.6024 -37.4877 57.8299 5.87289 50.3556 6.58207 5.18953 28.7808 1.36314e-005 3.08957e-005 0.72014 6.93017 -90.2557 13.029 1.29674 -1.01611 1.35825 1.25077 -1.07221 -21.1808 1.54214 -0.579367 -1.16818 1.54217 -0.579362 94.632 -51.907 -93.4165 40.4555 2.97296 -30.7178 -4.909 -35.7833 -5.238 -2.07369 -0.0347399 -4.94924 -75.8408 -52.9907 100.027 -12.4014 -26.548 -6.96656 -22.974 -16.9924 -34.68 19.7253 -0.0304526 -4.05283 -22.2098 -2.94646 -2.50568 -32.0703 -6.55935 12.3435 
-51.9691 89.5815 -109.436 -96.1194 -55.0483 -91.7864 179.482 10.0256 84.1603 -32.689 -24.0282 -1.52812 75.8241 7.05287 3.39815 28.7808 5.44988e-006 1.52149e-006 175.567 9.43518 77.4213 -16.3898 73.4296 14.1905 54.7452 8.42451 5.90499 28.7808 1.36314e-005 3.08957e-005 0.455532 6.98771 -89.2686 12.9379 1.19629 -1.07671 1.26704 1.14775 -1.12833 -21.2709 1.46457 -0.667374 -1.25825 1.46457 -0.667384 95.7295 -53.7593 -91.5349 37.5706 5.25316 -29.4251 -4.60813 -30.2817 -5.10388 0.0118922 -0.00319972 -0.172407 -76.7076 -53.4432 98.7501 -17.4317 -25.0377 -8.30798 -16.7493 -10.2747 -31.3033 18.1318 0.52968 -0.913341 -23.5848 -3.52695 -4.75959 -31.1463 -7.26318 12.4785 
-53.0607 90.3398 -108.354 -98.1322 -56.8895 -91.7794 179.259 6.88492 86.2358 -30.4934 -21.9886 -1.19822 75.6761 7.71039 3.69425 28.7808 5.44988e-006 1.52149e-006 176.318 18.8915 74.9879 -19.9698 44.8169 3.68839 44.9827 2.95732 2.93921 28.7808 1.36314e-005 3.08957e-005 0.696236 7.09485 -90.7759 12.6746 1.15017 -1.10931 1.00364 1.10027 -1.15887 -21.5338 1.43039 -0.712337 -1.52112 1.43039 -0.712335 96.504 -55.0346 -90.2573 34.8907 7.44025 -27.2372 -4.63891 -30.8717 -5.11595 -0.349597 -0.0154652 0.15968 -77.533 -54.0743 97.5459 -21.1286 -23.4235 -8.04927 -9.34433 0.345704 -28.8874 10.741 0.658866 2.1074 -24.6375 -3.83863 -6.63014 -30.0608 -7.61347 12.3897 
-54.5693 90.0835 -107.347 -100.166 -58.076 -93.671 179.476 5.37545 86.6792 -31.9091 -20.6497 -1.09651 77.3371 7.42579 3.48045 28.7808 5.44988e-006 1.52149e-006 176.723 23.2989 72.8865 -20.9918 36.398 2.61792 43.4993 6.45674 5.95972 28.7808 1.36314e-005 3.08957e-005 0.660786 7.26124 -90.6245 12.3541 1.17324 -1.05513 0.683248 1.12565 -1.10574 -21.8546 1.43608 -0.653717 -1.84192 1.43607 -0.653716 96.9296 -56.0772 -89.5397 32.4908 9.27017 -25.1067 -4.72808 -32.5487 -5.15377 -1.27873 -0.0639003 1.27782 -77.8592 -55.2013 97.0785 -23.0759 -21.7519 -6.75961 -2.93812 11.1895 -28.4015 2.74444 0.208497 2.24945 -25.0666 -3.95258 -8.27882 -29.4881 -7.85336 12.5453 
-56.0687 89.896 -106.361 -102.58 -58.709 -95.6903 179.641 3.36575 87.2877 -32.6551 -20.0986 -1.05193 78.8971 7.24314 3.32635 28.7808 5.44988e-006 1.52149e-006 177.167 26.5246 71.9467 -21.4022 29.551 1.93834 42.1723 9.86569 9.04625 28.7808 1.36314e-005 3.08957e-005 0.652071 7.46253 -90.5714 11.9532 1.21738 -1.03042 0.282396 1.17086 -1.08301 -22.2559 1.47078 -0.61688 -2.24325 1.47078 -0.616876 97.1025 -56.9703 -89.2114 30.1744 10.8963 -23.054 -4.81816 -34.1869 -5.19449 -1.58312 -0.0764535 0.740382 -77.6147 -56.9262 97.4296 -23.913 -20.4857 -5.66017 -2.34966 14.1764 -26.6494 1.13921 -0.0323398 -2.41748 -25.2629 -3.97552 -9.20243 -29.0898 -7.86883 12.3581 
-57.5453 89.7628 -105.424 -104.847 -58.8314 -97.4354 179.852 1.5906 88.0422 -33.6617 -19.8187 -1.02616 80.0806 6.64263 3.02995 28.7808 5.44988e-006 1.52149e-006 178.004 29.6207 71.6172 -22.9759 24.029 1.45239 38.906 10.5808 10.3021 28.7808 1.36314e-005 3.08957e-005 0.653624 7.67934 -90.5114 11.5224 1.28647 -1.0611 -0.148354 1.23853 -1.1167 -22.6871 1.54588 -0.625368 -2.67449 1.54589 -0.625369 96.6699 -57.4214 -89.7869 28.2997 12.1451 -21.1073 -4.84576 -34.677 -5.20711 -2.27504 -0.106277 0.252976 -77.5696 -58.7589 97.4926 -24.7966 -20.7403 -4.97788 -1.98882 15.863 -23.7959 0.466808 -0.0821575 -3.95258 -25.7204 -3.89712 -9.49703 -28.0865 -7.66204 12.0715 
-59.0587 89.5639 -104.67 -107.135 -58.7425 -98.8812 -179.822 1.6672 89.2866 -38.2951 -18.8301 -0.878558 80.0493 3.0786 1.61934 28.7808 5.44988e-006 1.52149e-006 177.912 30.3799 72.4689 -21.5476 19.8822 1.15739 35.1245 9.60743 10.161 28.7808 1.36314e-005 3.08957e-005 0.692793 7.92188 -90.6507 11.0357 1.36272 -1.12785 -0.635115 1.31176 -1.18674 -23.1743 1.63867 -0.666112 -3.16169 1.63866 -0.666105 96.485 -57.8497 -90.0082 26.7876 13.0827 -19.5444 -5.12782 -39.3936 -5.35207 -3.68167 -0.234768 2.65776 -78.2213 -60.2557 96.6108 -25.5164 -21.7838 -4.30886 -3.31568 13.815 -19.6682 2.09699 -0.179506 -6.66988 -26.1954 -3.82904 -9.72786 -26.6516 -7.5128 12.188 
-60.7258 89.2724 -103.883 -109.525 -58.9496 -101.185 -179.661 -0.423435 89.7099 -38.7606 -18.0617 -0.822699 81.5127 2.90778 1.54515 28.7808 5.44988e-006 1.52149e-006 178.181 31.348 72.578 -21.9084 16.1043 0.883064 31.5198 8.71015 9.99187 28.7808 1.36314e-005 3.08957e-005 0.613172 8.18484 -90.562 10.5111 1.2784 -1.04364 -1.15967 1.23125 -1.09891 -23.6985 1.53295 -0.611146 -3.68581 1.53294 -0.611136 96.3435 -57.8061 -90.2124 25.3764 13.8653 -18.7081 -5.24253 -41.1582 -5.41651 2.06173 0.132096 1.82972 -79.313 -61.0484 95.1541 -25.4161 -22.923 -3.27975 -3.68251 13.8268 -17.1993 1.89223 0.0297693 -1.1525 -26.3209 -3.63487 -9.48431 -25.535 -7.25163 12.5564 
-62.6761 88.8902 -103.044 -111.803 -59.895 -103.931 -179.345 -2.62356 90.7784 -38.9073 -13.8283 -0.5434 83.2154 3.32974 1.69033 28.7808 5.44988e-006 1.52149e-006 178.593 32.2417 72.0852 -23.2829 11.5115 0.56343 27.9646 9.96101 12.0674 28.7808 1.36314e-005 3.08957e-005 0.435358 8.43671 -90.3774 10.0082 1.03802 -0.849049 -1.66263 0.999637 -0.89391 -24.2002 1.24519 -0.497813 -4.18752 1.24519 -0.497806 96.7523 -57.598 -89.6536 24.3025 14.4172 -18.5158 -5.37254 -43.0536 -5.49278 8.45231 0.335984 -0.501465 -80.3915 -61.1373 93.7117 -24.8935 -24.0788 -2.26283 -5.12225 9.38017 -15.3371 2.07029 0.191009 2.87963 -26.0703 -3.41848 -9.16297 -24.7823 -6.99211 13.0501 
